<?xml version="1.0" encoding="utf-8"?>
<!-- Generator: Adobe Illustrator 19.2.1, SVG Export Plug-In . SVG Version: 6.00 Build 0)  -->
<svg version="1.1" id="Layer_1" xmlns="http://www.w3.org/2000/svg" xmlns:xlink="http://www.w3.org/1999/xlink" x="0px" y="0px"
	 viewBox="0 0 252.5 261.2" style="enable-background:new 0 0 252.5 261.2;" xml:space="preserve">
<style type="text/css">
	.st0{opacity:0.7;}
	.st1{fill:#00796B;}
	.st2{opacity:0.5;}
</style>
<g id="around_2_">
	<g class="st0">
		<path class="st1" d="M125.7,13.5l-0.2-1.1c0-0.2-0.1-0.3-0.3-0.3l-3.1-1c-0.1,0-0.3,0-0.4,0.1l-0.8,0.8l-1.9-0.6
			c-0.2-0.1-0.4,0.1-0.5,0.3l-3.4,10.6c-0.1,0.2,0.1,0.4,0.3,0.5l8.6,2.7c0.2,0.1,0.4-0.1,0.5-0.3l3.4-10.6c0.1-0.2-0.1-0.4-0.3-0.5
			L125.7,13.5z M122.1,12l2.7,0.8l0.3,1.8l-4.2-1.3L122.1,12z M123.9,24.6l-7.9-2.5l3.1-9.8l1.1,0.4l-0.5,0.5
			c-0.1,0.1-0.1,0.2-0.1,0.4c0,0.1,0.1,0.2,0.3,0.3l5.5,1.7c0,0,0,0,0,0c0.2,0.1,0.4-0.1,0.5-0.3c0-0.1,0-0.2,0-0.2l-0.1-0.7
			l1.1,0.4L123.9,24.6z"/>
		<path class="st1" d="M125.1,16.8l-3.5-1.1c-0.2-0.1-0.4,0.1-0.5,0.3c-0.1,0.2,0.1,0.4,0.3,0.5l3.5,1.1c0.2,0.1,0.4-0.1,0.5-0.3
			S125.3,16.9,125.1,16.8z"/>
		<path class="st1" d="M124.4,18.8l-3.5-1.1c-0.2-0.1-0.4,0.1-0.5,0.3c-0.1,0.2,0.1,0.4,0.3,0.5l3.5,1.1c0.2,0.1,0.4-0.1,0.5-0.3
			S124.7,18.8,124.4,18.8z"/>
		<path class="st1" d="M123.8,20.7l-3.5-1.1c-0.2-0.1-0.4,0.1-0.5,0.3c-0.1,0.2,0.1,0.4,0.3,0.5l3.5,1.1c0.2,0.1,0.4-0.1,0.5-0.3
			C124.2,21,124,20.8,123.8,20.7z"/>
		<path class="st1" d="M123.2,22.7l-3.5-1.1c-0.2-0.1-0.4,0.1-0.5,0.3c-0.1,0.2,0.1,0.4,0.3,0.5l3.5,1.1c0.2,0.1,0.4-0.1,0.5-0.3
			S123.4,22.8,123.2,22.7z"/>
		<path class="st1" d="M120,15.2l-0.4-0.1c-0.2-0.1-0.4,0.1-0.5,0.3c-0.1,0.2,0.1,0.4,0.3,0.5l0.4,0.1c0.2,0.1,0.4-0.1,0.5-0.3
			C120.3,15.5,120.2,15.2,120,15.2z"/>
		<path class="st1" d="M119.3,17.1l-0.4-0.1c-0.2-0.1-0.4,0.1-0.5,0.3s0.1,0.4,0.3,0.5l0.4,0.1c0.2,0.1,0.4-0.1,0.5-0.3
			S119.5,17.2,119.3,17.1z"/>
		<path class="st1" d="M118.7,19.1l-0.4-0.1c-0.2-0.1-0.4,0.1-0.5,0.3s0.1,0.4,0.3,0.5l0.4,0.1c0.2,0.1,0.4-0.1,0.5-0.3
			C119,19.4,118.9,19.2,118.7,19.1z"/>
		<path class="st1" d="M118.1,21.1l-0.4-0.1c-0.2-0.1-0.4,0.1-0.5,0.3s0.1,0.4,0.3,0.5l0.4,0.1c0.2,0.1,0.4-0.1,0.5-0.3
			S118.3,21.1,118.1,21.1z"/>
	</g>
	<g>
		<path class="st1" d="M221.9,166.9l-4.3-11.6c-0.1-0.2-0.3-0.3-0.5-0.2l-8.5,3.2c-0.2,0.1-0.3,0.3-0.2,0.5l4.3,11.6
			c0.1,0.2,0.3,0.3,0.5,0.2l8.5-3.2C221.9,167.3,222,167.1,221.9,166.9z M221,166.8l-7.7,2.9l-4-10.8l7.7-2.9L221,166.8z"/>
		<path class="st1" d="M216.3,166.9c0,0.1,0,0.2,0,0.3c0,0.1,0.1,0.2,0.2,0.2c0.1,0,0.2,0,0.3,0c0.1,0,0.2-0.1,0.2-0.2
			c0-0.1,0-0.2,0-0.3c0-0.1-0.1-0.2-0.2-0.2C216.7,166.6,216.4,166.7,216.3,166.9z"/>
		<path class="st1" d="M212.7,159.3l1.9-0.7c0.2-0.1,0.3-0.3,0.2-0.5s-0.3-0.3-0.5-0.2l-1.9,0.7c-0.2,0.1-0.3,0.3-0.2,0.5
			C212.3,159.3,212.5,159.4,212.7,159.3z"/>
	</g>
	<g class="st0">
		<path class="st1" d="M32.7,126.9l-12.2,1.8c-0.2,0-0.4,0.2-0.3,0.5l1.2,8.2c0,0.2,0.2,0.4,0.5,0.3l5.7-0.8l0.2,1.6l-1.6,0.2
			c-0.2,0-0.4,0.2-0.3,0.5s0.2,0.4,0.5,0.3l4.1-0.6c0.2,0,0.4-0.2,0.3-0.5c0-0.2-0.2-0.4-0.5-0.3l-1.6,0.2l-0.2-1.6l5.7-0.8
			c0.2,0,0.4-0.2,0.3-0.5l-1.2-8.2C33.2,127,32.9,126.9,32.7,126.9z M33.5,135.1l-11.4,1.6l-1.1-7.3l11.4-1.6L33.5,135.1z"/>
	</g>
	<g class="st0">
		<path class="st1" d="M74.3,234.9l12.3,1.5c0.2,0,0.4-0.1,0.5-0.4l0.1-1.2c0-0.2-0.1-0.4-0.4-0.5l-0.8-0.1l0.8-6.5
			c0-0.2-0.1-0.4-0.4-0.5l-9.8-1.2c-0.2,0-0.4,0.1-0.5,0.4l-0.8,6.5l-0.8-0.1c-0.2,0-0.4,0.1-0.5,0.4l-0.1,1.2
			C73.9,234.7,74.1,234.9,74.3,234.9z M76.9,226.9l9,1.1l-0.7,6.1l-9-1.1L76.9,226.9z M74.9,233.7l0.8,0.1l9.8,1.2l0.8,0.1l0,0.4
			l-11.5-1.4L74.9,233.7z"/>
		<path class="st1" d="M81.1,227.9c-0.1,0.1-0.1,0.2-0.2,0.3c0,0.1,0,0.2,0.1,0.3c0.1,0.1,0.2,0.1,0.3,0.2c0.1,0,0.2,0,0.3-0.1
			c0.1-0.1,0.1-0.2,0.2-0.3c0-0.1,0-0.2-0.1-0.3C81.5,227.8,81.2,227.8,81.1,227.9z"/>
	</g>
	<g class="st0">
		<path class="st1" d="M150,238.5c0,0.2,0.2,0.4,0.5,0.3l12.2-1.8c0.2,0,0.4-0.2,0.3-0.5l-1.1-7.3c0-0.2-0.2-0.4-0.5-0.3l-8.6,1.3
			l-0.1-0.8c0-0.2-0.2-0.4-0.5-0.3l-2,0.3c-0.2,0-0.4,0.2-0.3,0.5l0.1,0.8l-0.8,0.1c-0.2,0-0.4,0.2-0.3,0.5L150,238.5z M150.9,230.1
			l1.2-0.2l0.1,0.4l-1.2,0.2L150.9,230.1z M149.8,231.5l11.4-1.7l1,6.5l-11.4,1.7L149.8,231.5z"/>
		<path class="st1" d="M157.3,231.2c-1.3,0.2-2.3,1.5-2.1,2.8c0.2,1.3,1.5,2.3,2.8,2.1c1.3-0.2,2.3-1.5,2.1-2.8
			C159.9,232,158.6,231,157.3,231.2z M157.9,235.3c-0.9,0.1-1.7-0.5-1.9-1.4s0.5-1.7,1.4-1.9s1.7,0.5,1.9,1.4
			S158.8,235.2,157.9,235.3z"/>
		<path class="st1" d="M152.4,232.1l-1.2,0.2c-0.2,0-0.4,0.2-0.3,0.5c0,0.2,0.2,0.4,0.5,0.3l1.2-0.2c0.2,0,0.4-0.2,0.3-0.5
			C152.9,232.3,152.7,232.1,152.4,232.1z"/>
	</g>
	<g class="st0">
		<path class="st1" d="M170.1,49.8c0.1,0,0.2-0.1,0.2-0.2l1.9-2.6c0.2-0.2,0.4-0.6,0.4-0.9l3.1-11c0.1-0.2,0-0.4-0.1-0.6
			s-0.3-0.3-0.5-0.4l-2-0.6c-0.2-0.1-0.4,0-0.6,0.1c-0.2,0.1-0.3,0.3-0.4,0.5L169,45.4c-0.1,0.3-0.1,0.7-0.1,1l0.3,2.9
			c0,0.3,0.2,0.5,0.3,0.5C169.7,49.9,169.9,49.9,170.1,49.8z M171.9,45.9L171.9,45.9l-2-0.6l2.6-9.3l2,0.6L171.9,45.9z M173,34.3
			l2,0.6l-0.3,0.9l-2-0.6L173,34.3z M169.7,46.2c0,0,0-0.1,0-0.1l1.7,0.5l-1.5,1.9L169.7,46.2z"/>
	</g>
	<g class="st0">
		<path class="st1" d="M239.3,134.7c0.4,0.2,0.9,0.1,1.1-0.3l5.7-10.1c0.2-0.4,0.1-0.9-0.3-1.1l-4.7-2.6c-0.3-0.2-0.7-0.2-1.1-0.1
			l-3.1,0.9c-0.3,0.1-0.7,0.4-0.8,0.7l-4.2,7.5c-0.2,0.4-0.1,0.9,0.3,1.1L239.3,134.7z M245.4,123.9l-5.7,10.1l0,0l-7.2-4l4.2-7.5
			l1.8,1c0.4,0.2,0.9,0.1,1.1-0.3l1-1.8L245.4,123.9z M239.7,121.4l-0.7,1.3l-1.3-0.7L239.7,121.4z"/>
		<path class="st1" d="M240.6,124.1l2.2,1.2c0.2,0.1,0.4,0,0.6-0.2c0.1-0.2,0-0.4-0.2-0.6l-2.2-1.2c-0.2-0.1-0.4,0-0.6,0.2
			C240.3,123.7,240.4,124,240.6,124.1z"/>
		<path class="st1" d="M242.1,126.4l-4.3-2.4c-0.2-0.1-0.4,0-0.6,0.2c-0.1,0.2,0,0.4,0.2,0.6l4.3,2.4c0.2,0.1,0.4,0,0.6-0.2
			C242.4,126.7,242.3,126.5,242.1,126.4z"/>
		<path class="st1" d="M241.1,128.2l-4.3-2.4c-0.2-0.1-0.4,0-0.6,0.2c-0.1,0.2,0,0.4,0.2,0.6l4.3,2.4c0.2,0.1,0.4,0,0.6-0.2
			C241.4,128.5,241.3,128.3,241.1,128.2z"/>
		<path class="st1" d="M240.1,130l-4.3-2.4c-0.2-0.1-0.4,0-0.6,0.2c-0.1,0.2,0,0.4,0.2,0.6l4.3,2.4c0.2,0.1,0.4,0,0.6-0.2
			C240.4,130.3,240.3,130.1,240.1,130z"/>
		<path class="st1" d="M239.1,131.7l-4.3-2.4c-0.2-0.1-0.4,0-0.6,0.2c-0.1,0.2,0,0.4,0.2,0.6l4.3,2.4c0.2,0.1,0.4,0,0.6-0.2
			C239.4,132.1,239.3,131.9,239.1,131.7z"/>
	</g>
	<g class="st0">
		<path class="st1" d="M222,82.2l6.2,4.7c0.4,0.3,0.9,0.2,1.2-0.2l7-9.2c0.3-0.4,0.2-0.9-0.2-1.2l-6.2-4.7c-0.4-0.3-0.9-0.2-1.2,0.2
			l-0.7,1l-0.3-0.2c-0.2-0.1-0.4-0.1-0.6,0.1c-0.1,0.2-0.1,0.4,0.1,0.6l0.3,0.2l-0.5,0.7l-0.3-0.2c-0.2-0.1-0.4-0.1-0.6,0.1
			c-0.1,0.2-0.1,0.4,0.1,0.6l0.3,0.2l-0.5,0.7l-0.3-0.2c-0.2-0.1-0.4-0.1-0.6,0.1c-0.1,0.2-0.1,0.4,0.1,0.6l0.3,0.2l-0.5,0.7
			l-0.3-0.2c-0.2-0.1-0.4-0.1-0.6,0.1c-0.1,0.2-0.1,0.4,0.1,0.6l0.3,0.2l-0.5,0.7l-0.3-0.2c-0.2-0.1-0.4-0.1-0.6,0.1
			c-0.1,0.2-0.1,0.4,0.1,0.6l0.3,0.2l-0.5,0.7l-0.3-0.2c-0.2-0.1-0.4-0.1-0.6,0.1c-0.1,0.2-0.1,0.4,0.1,0.6l0.3,0.2l-0.7,1
			C221.5,81.4,221.6,81.9,222,82.2z M228.7,86.2l-1.3-1l7-9.2l1.3,1L228.7,86.2z M224.2,79.2l0.3,0.2c0.2,0.1,0.4,0.1,0.6-0.1
			c0.1-0.2,0.1-0.4-0.1-0.6l-0.3-0.2l0.5-0.7l0.3,0.2c0.2,0.1,0.4,0.1,0.6-0.1c0.1-0.2,0.1-0.4-0.1-0.6l-0.3-0.2l0.5-0.7l0.3,0.2
			c0.2,0.1,0.4,0.1,0.6-0.1c0.1-0.2,0.1-0.4-0.1-0.6l-0.3-0.2l0.5-0.7l0.3,0.2c0.2,0.1,0.4,0.1,0.6-0.1c0.1-0.2,0.1-0.4-0.1-0.6
			l-0.3-0.2l0.5-0.7l0.3,0.2c0.2,0.1,0.4,0.1,0.6-0.1c0.1-0.2,0.1-0.4-0.1-0.6l-0.3-0.2l0.7-1l4.3,3.2l-7,9.2l-4.3-3.2l0.7-1
			l0.3,0.2c0.2,0.1,0.4,0.1,0.6-0.1c0.1-0.2,0.1-0.4-0.1-0.6l-0.3-0.2L224.2,79.2z"/>
	</g>
	<g class="st0">
		<path class="st1" d="M212.5,112.9c0.3-0.3,0.3-0.8,0-1.2l-8-8.3c-0.3-0.3-0.8-0.3-1.2,0l-1.8,1.7c-0.3,0.3-0.3,0.8,0,1.2l8,8.3
			c0.3,0.3,0.8,0.3,1.2,0L212.5,112.9z M202.1,105.7l1.8-1.7l0.9,0.9l-0.9,0.9c-0.2,0.2-0.2,0.4,0,0.6c0.2,0.2,0.4,0.2,0.6,0
			l0.9-0.9l0.9,0.9l-0.1,0.1c-0.2,0.2-0.2,0.4,0,0.6s0.4,0.2,0.6,0l0.1-0.1l0.9,0.9l-0.9,0.9c-0.2,0.2-0.2,0.4,0,0.6s0.4,0.2,0.6,0
			l0.9-0.9l0.9,0.9l-0.1,0.1c-0.2,0.2-0.2,0.4,0,0.6s0.4,0.2,0.6,0l0.1-0.1l0.9,0.9l-0.9,0.9c-0.2,0.2-0.2,0.4,0,0.6s0.4,0.2,0.6,0
			l0.9-0.9l0.9,0.9l-1.8,1.7L202.1,105.7z"/>
		<path class="st1" d="M208.5,116.4c0.2-0.2,0.2-0.4,0.1-0.7l-0.3-1c-0.1-0.3-0.3-0.6-0.5-0.9l-6.6-6.8c-0.3-0.3-0.8-0.3-1.2,0
			l-0.6,0.6c-0.3,0.3-0.3,0.8,0,1.2l6.6,6.8c0.2,0.2,0.6,0.4,0.8,0.5l1,0.3C208.1,116.6,208.3,116.6,208.5,116.4z M207.5,115
			l0.2,0.6l-0.6-0.2c-0.2-0.1-0.4-0.2-0.5-0.3l-5.1-5.3l0.6-0.6l5.1,5.3C207.3,114.6,207.5,114.9,207.5,115z M200.6,107.7l0.9,0.9
			l-0.6,0.6l-0.9-0.9L200.6,107.7z"/>
		<path class="st1" d="M207.2,101.7l-1-0.3c-0.3-0.1-0.5,0-0.7,0.1c-0.2,0.2-0.2,0.4-0.1,0.7l0.3,1c0.1,0.3,0.3,0.6,0.5,0.9l6.6,6.8
			c0.3,0.3,0.8,0.3,1.2,0l0.6-0.6c0.3-0.3,0.3-0.8,0-1.2l0.3-0.3c0.3-0.3,0.3-0.8,0-1.2l-1.1-1.2c-0.2-0.2-0.4-0.2-0.6,0
			c-0.2,0.2-0.2,0.4,0,0.6l1.1,1.2l-0.3,0.3l-6-6.2C207.8,102.1,207.4,101.8,207.2,101.7z M214,109.7l-0.6,0.6l-6.6-6.8
			c-0.1-0.1-0.3-0.4-0.3-0.5l-0.2-0.6l0.6,0.2c0.2,0.1,0.4,0.2,0.5,0.3L214,109.7z"/>
	</g>
	<g class="st0">
		<path class="st1" d="M73,41.7c-0.2,0.1-0.4,0.4-0.3,0.8l4,10.8c0.2,0.4,0.6,0.6,1.1,0.5l10.8-4c0.4-0.1,0.4-0.4,0.4-0.5
			c0-0.1,0-0.4-0.4-0.6l-15.1-7C73.2,41.6,73.1,41.7,73,41.7z M77.4,53l-0.3-0.8l0.8-0.3c0.2-0.1,0.3-0.3,0.2-0.5s-0.3-0.3-0.5-0.2
			l-0.8,0.3l-0.3-0.8l0.4-0.1c0.2-0.1,0.3-0.3,0.2-0.5c-0.1-0.2-0.3-0.3-0.5-0.2l-0.4,0.1L76,49.2l0.8-0.3c0.2-0.1,0.3-0.3,0.2-0.5
			s-0.3-0.3-0.5-0.2l-0.8,0.3l-0.3-0.8l0.4-0.1c0.2-0.1,0.3-0.3,0.2-0.5c-0.1-0.2-0.3-0.3-0.5-0.2l-0.4,0.1l-0.3-0.8l0.8-0.3
			c0.2-0.1,0.3-0.3,0.2-0.5s-0.3-0.3-0.5-0.2l-0.8,0.3l-0.9-2.5l14,6.5L77.4,53z"/>
		<path class="st1" d="M79.4,51.4l4.6-1.7c0.4-0.1,0.4-0.4,0.4-0.5c0-0.1,0-0.4-0.4-0.6l-6.7-3.1c-0.2-0.1-0.4-0.1-0.5,0
			c-0.2,0.1-0.4,0.4-0.3,0.8l1.7,4.6C78.5,51.3,79,51.6,79.4,51.4z M77.7,46.5l5.6,2.6l-4.1,1.5L77.7,46.5z"/>
		<path class="st1" d="M86.4,46.8l0.9-0.1c0.1,0,0.1,0,0.2,0l0,0c0.2-0.1,0.3-0.2,0.4-0.4c0.1-0.2,0-0.4-0.1-0.6l-0.5-0.7
			c-0.2-0.2-0.5-0.5-0.8-0.7l-8.8-4.1c-0.2-0.1-0.4-0.1-0.6,0c-0.2,0.1-0.4,0.2-0.5,0.4l-0.4,0.8c-0.2,0.4,0,0.9,0.4,1.1l8.8,4.1
			C85.7,46.7,86.1,46.8,86.4,46.8z M86.6,45.4l0.3,0.5l-0.6,0.1c-0.2,0-0.4,0-0.6-0.1l-7.2-3.3l0.4-0.8l7.2,3.3
			C86.3,45.1,86.5,45.3,86.6,45.4z M77.4,40.9l0.8,0.4l-0.4,0.8L77,41.8L77.4,40.9z"/>
	</g>
	<g class="st0">
		<path class="st1" d="M48.6,171.8l-6-1.4l-5.4-2.9c-0.1-0.1-0.2-0.1-0.3,0c-0.1,0-0.2,0.1-0.2,0.2l-3.5,9.2c-0.1,0.2,0,0.4,0.2,0.5
			l5.5,3c0,0,0,0,0,0s0,0,0.1,0l6.1,1.4c0.2,0,0.4-0.1,0.5-0.3l3.5-9.2c0-0.1,0-0.2,0-0.3C48.9,171.9,48.8,171.8,48.6,171.8z
			 M37.2,168.4L42,171l-3.2,8.5l-4.8-2.6L37.2,168.4z M44.8,181l-5.3-1.2l3.2-8.5l5.3,1.2L44.8,181z"/>
		<path class="st1" d="M37.6,170.7l2.9,1.6c0,0,0,0,0,0c0.2,0.1,0.4,0,0.5-0.2c0.1-0.2,0-0.5-0.2-0.6l-2.9-1.6
			c-0.2-0.1-0.5,0-0.6,0.2C37.3,170.3,37.4,170.6,37.6,170.7z"/>
		<path class="st1" d="M40.2,173.4l-2.9-1.6c-0.2-0.1-0.5,0-0.6,0.2c-0.1,0.2,0,0.5,0.2,0.6l2.9,1.6c0,0,0,0,0,0
			c0.2,0.1,0.4,0,0.5-0.2C40.5,173.8,40.4,173.5,40.2,173.4z"/>
		<path class="st1" d="M39.5,175.4l-2.9-1.6c-0.2-0.1-0.5,0-0.6,0.2c-0.1,0.2,0,0.5,0.2,0.6l2.9,1.6c0,0,0,0,0,0
			c0.2,0.1,0.4,0,0.5-0.2C39.7,175.7,39.7,175.5,39.5,175.4z"/>
		<path class="st1" d="M38.7,177.3l-2.9-1.6c-0.2-0.1-0.5,0-0.6,0.2c-0.1,0.2,0,0.5,0.2,0.6l2.9,1.6c0,0,0,0,0,0
			c0.2,0.1,0.4,0,0.5-0.2C39,177.6,38.9,177.4,38.7,177.3z"/>
		<path class="st1" d="M42.9,173.1C42.9,173.1,42.9,173.2,42.9,173.1l3.3,0.8c0.2,0.1,0.4-0.1,0.5-0.3c0.1-0.2-0.1-0.4-0.3-0.5
			l-3.2-0.8c-0.2-0.1-0.4,0.1-0.5,0.3C42.6,172.9,42.7,173.1,42.9,173.1z"/>
		<path class="st1" d="M42.2,175.1C42.2,175.1,42.2,175.1,42.2,175.1l3.3,0.8c0.2,0.1,0.4-0.1,0.5-0.3c0.1-0.2-0.1-0.4-0.3-0.5
			l-3.2-0.8c-0.2-0.1-0.4,0.1-0.5,0.3C41.9,174.8,42,175,42.2,175.1z"/>
		<path class="st1" d="M41.4,177C41.4,177,41.5,177,41.4,177l3.3,0.8c0.2,0.1,0.4-0.1,0.5-0.3c0.1-0.2-0.1-0.4-0.3-0.5l-3.2-0.8
			c-0.2-0.1-0.4,0.1-0.5,0.3C41.1,176.7,41.2,176.9,41.4,177z"/>
		<path class="st1" d="M44.2,178.9l-3.2-0.8c-0.2-0.1-0.4,0.1-0.5,0.3c-0.1,0.2,0.1,0.4,0.3,0.5c0,0,0,0,0,0l3.2,0.8
			c0.2,0.1,0.4-0.1,0.5-0.3C44.5,179.2,44.4,179,44.2,178.9z"/>
	</g>
	<g class="st0">
		<path class="st1" d="M54.8,89.8c1.1-0.2,1.8-1.3,1.6-2.4l-1.2-5.7l4.6-2.1l0.8,3.9c-0.5-0.2-0.8-0.2-1.3-0.1
			c-1.1,0.2-1.8,1.3-1.6,2.4c0.2,1.1,1.3,1.8,2.4,1.6c1.1-0.2,1.8-1.3,1.6-2.4l-1.3-6c0,0,0,0,0,0l-0.7-3.2c0-0.1-0.1-0.2-0.2-0.3
			c-0.1-0.1-0.2-0.1-0.4,0l-5.4,2.4c-0.2,0.1-0.3,0.3-0.2,0.5l0.7,3.2l0,0l1,4.4c-0.5-0.2-0.8-0.2-1.3-0.1c-1.1,0.2-1.8,1.3-1.6,2.4
			C52.6,89.3,53.7,90,54.8,89.8z M60,86.5c-0.7,0.1-1.3-0.3-1.5-0.9c-0.1-0.7,0.3-1.3,0.9-1.5c0.7-0.1,1.3,0.3,1.5,0.9
			C61.1,85.7,60.7,86.4,60,86.5z M59.1,76.3l0.5,2.4L55,80.8l-0.5-2.4L59.1,76.3z M54.1,86.5c0.7-0.1,1.3,0.3,1.5,0.9
			c0.1,0.7-0.3,1.3-0.9,1.5c-0.7,0.1-1.3-0.3-1.5-0.9C53,87.3,53.4,86.7,54.1,86.5z"/>
	</g>
	<g class="st0">
		<path class="st1" d="M205.4,203.5l0.4,0.2c0.2,0.1,0.4,0,0.6-0.2l1.7-3l0.3-0.5l0.6-1.1c0.1-0.1,1.5-2.5,4.3-0.9
			c2.8,1.6,1.5,4,1.4,4.1l-0.6,1.1l-2.1,3.6c-0.1,0.2,0,0.4,0.2,0.6l0.4,0.2c1.2,0.7,2.7,0.3,3.4-0.9c0.7-1.2,0.3-2.7-0.9-3.4
			l0.4-0.7c0,0,1.8-3.2-1.7-5.3c-3.5-2-5.4,1.1-5.4,1.2l-0.4,0.7c-1.2-0.7-2.7-0.3-3.4,0.9C203.9,201.3,204.3,202.8,205.4,203.5z
			 M215.3,206.3c-0.5,0.8-1.5,1.1-2.3,0.6l1.6-2.9C215.4,204.5,215.7,205.5,215.3,206.3z M207.5,199.9l-0.1,0.2l-1.5,2.7
			c-0.8-0.5-1.1-1.5-0.6-2.3C205.7,199.7,206.7,199.5,207.5,199.9z"/>
	</g>
	<g class="st0">
		<path class="st1" d="M58.5,198.9l-1.6,0.3c-0.2,0-0.4,0.2-0.3,0.5l0.6,3.7c-0.4,0.2-0.7,0.6-0.6,1.3l1.2,7.3
			c0,0.2,0.2,0.4,0.5,0.3l3.3-0.5c0.2,0,0.4-0.2,0.3-0.5l-1.2-7.3c-0.1-0.7-0.6-1-1-1l-0.6-3.7C58.9,199.1,58.7,198.9,58.5,198.9z
			 M57.6,204.1c0.2,0,0.4-0.2,0.3-0.5l-0.6-3.7l0.8-0.1l0.6,3.7c0,0.2,0.2,0.4,0.5,0.3c0.2,0,0.4,0,0.5,0.3l0.3,1.6l-2.4,0.4
			l-0.3-1.6C57.2,204.2,57.5,204.1,57.6,204.1z M57.7,207l2.4-0.4l0.3,1.6l-2.4,0.4L57.7,207z M58.4,211.5l-0.3-2l2.4-0.4l0.3,2
			L58.4,211.5z"/>
		<path class="st1" d="M56,208c0.1-0.1,0.1-0.2,0.1-0.4l-0.5-3.3c0-0.2-0.2-0.4-0.5-0.3l-2.4,0.4c-0.2,0-0.4,0.2-0.3,0.5l0.5,3.3
			c0,0.1,0.1,0.3,0.2,0.3l1.2,0.5l0.5,3l-0.6,0.1c-0.2,0-0.4,0.2-0.3,0.5c0,0.2,0.2,0.4,0.5,0.3l2-0.3c0.2,0,0.4-0.2,0.3-0.5
			c0-0.2-0.2-0.4-0.5-0.3l-0.6,0.1l-0.5-3L56,208z M53.2,205.2l1.6-0.3l0.4,2.6l-0.7,0.7l-0.9-0.4L53.2,205.2z"/>
	</g>
	<g class="st0">
		<path class="st1" d="M26.9,93.6l-4-1.1c-0.1,0-0.3,0-0.4,0.1l-1.5,1.1l-1.2-0.3l-0.7-1.7c0-0.1-0.1-0.2-0.3-0.2l-4-1.1
			c-0.2-0.1-0.4,0.1-0.5,0.3l-0.9,3.2c-0.1,0.2,0.1,0.4,0.3,0.5l2,0.5l-1.8,6.8c-0.1,0.2,0.1,0.4,0.3,0.5l7.2,1.9
			c0.2,0.1,0.4-0.1,0.5-0.3l1.8-6.8l2,0.5c0.2,0.1,0.4-0.1,0.5-0.3l0.9-3.2C27.3,93.8,27.2,93.6,26.9,93.6z M25.7,96.6l-2-0.5
			c-0.2-0.1-0.4,0.1-0.5,0.3l-1.8,6.8l-6.4-1.7l1.8-6.8c0.1-0.2-0.1-0.4-0.3-0.5l-2-0.5l0.6-2.4l3.4,0.9l0.7,1.7
			c0,0.1,0.1,0.2,0.3,0.2l1.6,0.4c0.1,0,0.3,0,0.4-0.1l1.5-1.1l3.4,0.9L25.7,96.6z"/>
	</g>
	<g class="st2">
		<path class="st1" d="M201.3,241l-0.1-0.9c0-0.1-0.1-0.2-0.2-0.3l-2.5-1c-0.1,0-0.2,0-0.3,0.1l-0.7,0.6L196,239
			c-0.2-0.1-0.4,0-0.4,0.2l-3.2,8.3c-0.1,0.2,0,0.4,0.2,0.4l6.8,2.6c0.2,0.1,0.4,0,0.4-0.2l3.2-8.3c0.1-0.2,0-0.4-0.2-0.4L201.3,241
			z M198.5,239.6l2.1,0.8l0.1,1.5l-3.3-1.3L198.5,239.6z M199.3,249.8l-6.1-2.4l3-7.7l0.9,0.3l-0.4,0.4c-0.1,0.1-0.1,0.2-0.1,0.3
			c0,0.1,0.1,0.2,0.2,0.2l4.3,1.7c0,0,0,0,0,0c0.2,0.1,0.4,0,0.4-0.2c0-0.1,0-0.1,0-0.2l0-0.5l0.9,0.3L199.3,249.8z"/>
		<path class="st1" d="M200.6,243.6l-2.8-1.1c-0.2-0.1-0.4,0-0.4,0.2s0,0.4,0.2,0.4l2.8,1.1c0.2,0.1,0.4,0,0.4-0.2
			C200.9,243.9,200.8,243.7,200.6,243.6z"/>
		<path class="st1" d="M200,245.1l-2.8-1.1c-0.2-0.1-0.4,0-0.4,0.2c-0.1,0.2,0,0.4,0.2,0.4l2.8,1.1c0.2,0.1,0.4,0,0.4-0.2
			C200.3,245.4,200.2,245.2,200,245.1z"/>
		<path class="st1" d="M199.4,246.7l-2.8-1.1c-0.2-0.1-0.4,0-0.4,0.2c-0.1,0.2,0,0.4,0.2,0.4l2.8,1.1c0.2,0.1,0.4,0,0.4-0.2
			S199.6,246.7,199.4,246.7z"/>
		<path class="st1" d="M198.8,248.2l-2.8-1.1c-0.2-0.1-0.4,0-0.4,0.2s0,0.4,0.2,0.4l2.8,1.1c0.2,0.1,0.4,0,0.4-0.2
			S199,248.3,198.8,248.2z"/>
		<path class="st1" d="M196.6,242l-0.3-0.1c-0.2-0.1-0.4,0-0.4,0.2s0,0.4,0.2,0.4l0.3,0.1c0.2,0.1,0.4,0,0.4-0.2
			S196.8,242.1,196.6,242z"/>
		<path class="st1" d="M196,243.6l-0.3-0.1c-0.2-0.1-0.4,0-0.4,0.2s0,0.4,0.2,0.4l0.3,0.1c0.2,0.1,0.4,0,0.4-0.2
			C196.3,243.8,196.2,243.7,196,243.6z"/>
		<path class="st1" d="M195.4,245.1l-0.3-0.1c-0.2-0.1-0.4,0-0.4,0.2c-0.1,0.2,0,0.4,0.2,0.4l0.3,0.1c0.2,0.1,0.4,0,0.4-0.2
			S195.6,245.2,195.4,245.1z"/>
		<path class="st1" d="M194.8,246.7l-0.3-0.1c-0.2-0.1-0.4,0-0.4,0.2s0,0.4,0.2,0.4l0.3,0.1c0.2,0.1,0.4,0,0.4-0.2
			S195,246.7,194.8,246.7z"/>
	</g>
	<g class="st2">
		<path class="st1" d="M58.2,23.2l-5-8.5c-0.1-0.2-0.3-0.2-0.5-0.1l-6.2,3.7c-0.2,0.1-0.2,0.3-0.1,0.5l5,8.5
			c0.1,0.2,0.3,0.2,0.5,0.1l6.2-3.7C58.3,23.5,58.3,23.3,58.2,23.2z M57.5,23.2l-5.7,3.3l-4.7-8l5.7-3.3L57.5,23.2z"/>
		<path class="st1" d="M53.8,24c0,0.1,0,0.2,0,0.2c0,0.1,0.1,0.1,0.2,0.2c0.1,0,0.2,0,0.2,0c0.1,0,0.1-0.1,0.2-0.2
			c0-0.1,0-0.2,0-0.2c0-0.1-0.1-0.1-0.2-0.2C54.1,23.7,53.9,23.8,53.8,24z"/>
		<path class="st1" d="M49.9,18.5l1.4-0.8c0.2-0.1,0.2-0.3,0.1-0.5c-0.1-0.2-0.3-0.2-0.5-0.1l-1.4,0.8c-0.2,0.1-0.2,0.3-0.1,0.5
			C49.6,18.5,49.8,18.6,49.9,18.5z"/>
	</g>
	<g class="st2">
		<path class="st1" d="M205.4,69.3l-7.6,6.4c-0.1,0.1-0.2,0.3,0,0.5l4.2,5c0.1,0.1,0.3,0.2,0.5,0l3.5-3l0.8,1l-1,0.8
			c-0.1,0.1-0.2,0.3,0,0.5s0.3,0.2,0.5,0l2.5-2.1c0.1-0.1,0.2-0.3,0-0.5s-0.3-0.2-0.5,0l-1,0.8l-0.8-1l3.5-3c0.1-0.1,0.2-0.3,0-0.5
			l-4.2-5C205.7,69.2,205.5,69.2,205.4,69.3z M209.4,74.6l-7.1,5.9l-3.8-4.5l7.1-5.9L209.4,74.6z"/>
	</g>
	<g class="st2">
		<path class="st1" d="M9.4,45l9.4-3.2c0.2-0.1,0.3-0.2,0.2-0.4l-0.3-0.9c-0.1-0.2-0.2-0.3-0.4-0.2l-0.6,0.2l-1.7-5
			c-0.1-0.2-0.2-0.3-0.4-0.2L8,37.8c-0.2,0.1-0.3,0.2-0.2,0.4l1.7,5l-0.6,0.2c-0.2,0.1-0.3,0.2-0.2,0.4l0.3,0.9
			C9,45,9.2,45.1,9.4,45z M8.5,38.3l6.9-2.3l1.6,4.7L10.1,43L8.5,38.3z M9.3,44l0.6-0.2l7.5-2.5l0.6-0.2l0.1,0.3l-8.7,3L9.3,44z"/>
		<path class="st1" d="M11.8,37.7c0,0.1,0,0.2,0,0.3c0,0.1,0.1,0.2,0.2,0.2c0.1,0,0.2,0,0.3,0c0.1,0,0.2-0.1,0.2-0.2
			c0-0.1,0-0.2,0-0.3c0-0.1-0.1-0.2-0.2-0.2C12.1,37.4,11.9,37.5,11.8,37.7z"/>
	</g>
	<g class="st2">
		<path class="st1" d="M148.9,18c-0.1,0.2,0,0.4,0.2,0.4l8.9,4.2c0.2,0.1,0.4,0,0.4-0.2l2.5-5.4c0.1-0.2,0-0.4-0.2-0.4l-6.3-3
			l0.3-0.6c0.1-0.2,0-0.4-0.2-0.4l-1.5-0.7c-0.2-0.1-0.4,0-0.4,0.2l-0.3,0.6l-0.6-0.3c-0.2-0.1-0.4,0-0.4,0.2L148.9,18z M153.2,12.7
			l0.9,0.4l-0.1,0.3L153,13L153.2,12.7z M151.9,13.2l8.3,4l-2.3,4.8l-8.3-4L151.9,13.2z"/>
		<path class="st1" d="M156.9,16.4c-1-0.5-2.2,0-2.6,0.9c-0.5,1,0,2.2,0.9,2.6c1,0.5,2.2,0,2.6-0.9S157.9,16.8,156.9,16.4z
			 M155.5,19.3c-0.7-0.3-0.9-1.1-0.6-1.8c0.3-0.7,1.1-0.9,1.8-0.6c0.7,0.3,0.9,1.1,0.6,1.8C157,19.4,156.2,19.6,155.5,19.3z"/>
		<path class="st1" d="M153.3,14.8l-0.9-0.4c-0.2-0.1-0.4,0-0.4,0.2c-0.1,0.2,0,0.4,0.2,0.4l0.9,0.4c0.2,0.1,0.4,0,0.4-0.2
			S153.5,14.9,153.3,14.8z"/>
	</g>
	<g class="st2">
		<path class="st1" d="M120.4,230.2c0,0.1,0,0.2,0,0.3l0.5,2.5c0,0.2,0.2,0.5,0.3,0.7l5,7.7c0.1,0.1,0.2,0.2,0.4,0.3
			c0.2,0,0.3,0,0.5-0.1l1.4-0.9c0.1-0.1,0.2-0.2,0.3-0.4s0-0.3-0.1-0.5l-5.1-7.9c-0.1-0.2-0.4-0.4-0.5-0.6l-2-1.3
			c-0.2-0.1-0.4-0.1-0.5-0.1C120.6,230,120.5,230.1,120.4,230.2z M121.8,233.3L121.8,233.3l1.4-0.9l4.2,6.5l-1.4,0.9L121.8,233.3z
			 M128.2,240.1l-1.4,0.9l-0.4-0.6l1.4-0.9L128.2,240.1z M122.7,231.9C122.8,231.9,122.8,231.9,122.7,231.9l-1.1,0.8l-0.4-1.9
			L122.7,231.9z"/>
	</g>
	<g class="st2">
		<path class="st1" d="M45.3,61.2c0.1-0.3,0-0.7-0.4-0.9L36.3,57c-0.3-0.1-0.7,0-0.9,0.4l-0.7,1.8c-0.1,0.3,0,0.7,0.4,0.9l8.6,3.3
			c0.3,0.1,0.7,0,0.9-0.4L45.3,61.2z M35.4,59.4l0.7-1.8l0.9,0.4l-0.4,0.9c-0.1,0.2,0,0.4,0.2,0.4c0.2,0.1,0.4,0,0.4-0.2l0.4-0.9
			l0.9,0.4l-0.1,0.2c-0.1,0.2,0,0.4,0.2,0.4c0.2,0.1,0.4,0,0.4-0.2l0.1-0.2l0.9,0.4L39.7,60c-0.1,0.2,0,0.4,0.2,0.4
			c0.2,0.1,0.4,0,0.4-0.2l0.4-0.9l0.9,0.4l-0.1,0.2c-0.1,0.2,0,0.4,0.2,0.4c0.2,0.1,0.4,0,0.4-0.2l0.1-0.2l0.9,0.4l-0.4,0.9
			c-0.1,0.2,0,0.4,0.2,0.4c0.2,0.1,0.4,0,0.4-0.2l0.4-0.9l0.9,0.4L44,62.8L35.4,59.4z"/>
		<path class="st1" d="M43.6,65.1c0.1-0.2,0-0.4-0.1-0.5L42.9,64c-0.2-0.2-0.4-0.4-0.7-0.4l-7.1-2.7c-0.3-0.1-0.7,0-0.9,0.4
			l-0.2,0.6c-0.1,0.3,0,0.7,0.4,0.9l7.1,2.7c0.2,0.1,0.6,0.1,0.8,0.1l0.8-0.1C43.4,65.4,43.5,65.3,43.6,65.1z M42.5,64.4l0.3,0.4
			l-0.5,0c-0.1,0-0.4,0-0.5-0.1l-5.5-2.1l0.2-0.6l5.5,2.1C42.2,64.2,42.4,64.3,42.5,64.4z M35,61.4l0.9,0.4l-0.2,0.6L34.7,62
			L35,61.4z"/>
		<path class="st1" d="M37.7,54.9l-0.8,0.1c-0.2,0-0.4,0.1-0.4,0.3c-0.1,0.2,0,0.4,0.1,0.5l0.5,0.6c0.2,0.2,0.4,0.4,0.7,0.4l7.1,2.7
			c0.3,0.1,0.7,0,0.9-0.4l0.2-0.6c0.1-0.3,0-0.7-0.4-0.9l0.1-0.3c0.1-0.3,0-0.7-0.4-0.9l-1.2-0.5c-0.2-0.1-0.4,0-0.4,0.2
			c-0.1,0.2,0,0.4,0.2,0.4l1.2,0.5L45,57.5L38.5,55C38.3,54.9,38,54.8,37.7,54.9z M45.4,58.3L45.1,59L38,56.2
			c-0.1,0-0.3-0.2-0.4-0.3l-0.3-0.4l0.5,0c0.1,0,0.4,0,0.5,0.1L45.4,58.3z"/>
	</g>
	<g class="st2">
		<path class="st1" d="M181.7,207.2c-0.2,0-0.4,0.2-0.4,0.5l-0.1,9.2c0,0.4,0.3,0.7,0.7,0.7l9.2,0.1c0.3,0,0.4-0.2,0.5-0.3
			c0-0.1,0.1-0.3-0.1-0.5l-9.3-9.5C182,207.2,181.8,207.2,181.7,207.2z M181.9,216.9l0-0.7l0.7,0c0.2,0,0.3-0.1,0.3-0.3
			c0-0.2-0.1-0.3-0.3-0.3l-0.7,0l0-0.7l0.3,0c0.2,0,0.3-0.1,0.3-0.3c0-0.2-0.1-0.3-0.3-0.3l-0.3,0l0-0.7l0.7,0
			c0.2,0,0.3-0.1,0.3-0.3c0-0.2-0.1-0.3-0.3-0.3l-0.7,0l0-0.7l0.3,0c0.2,0,0.3-0.1,0.3-0.3c0-0.2-0.1-0.3-0.3-0.3l-0.3,0l0-0.7
			l0.7,0c0.2,0,0.3-0.1,0.3-0.3s-0.1-0.3-0.3-0.3l-0.7,0l0-2.1l8.7,8.8L181.9,216.9z"/>
		<path class="st1" d="M183.9,216.3l4,0c0.3,0,0.4-0.2,0.5-0.3c0-0.1,0.1-0.3-0.1-0.5l-4.1-4.2c-0.1-0.1-0.3-0.2-0.4-0.2
			c-0.2,0-0.4,0.2-0.4,0.5l0,4C183.2,216,183.5,216.3,183.9,216.3z M183.9,212.1l3.5,3.5l-3.5,0L183.9,212.1z"/>
		<path class="st1" d="M190.4,214.8l0.7,0.2c0.1,0,0.1,0,0.2,0h0c0.2,0,0.3-0.1,0.4-0.2c0.1-0.1,0.1-0.3,0.1-0.5l-0.2-0.7
			c-0.1-0.2-0.2-0.5-0.4-0.7l-5.4-5.5c-0.1-0.1-0.3-0.2-0.5-0.2c-0.2,0-0.3,0.1-0.5,0.2l-0.5,0.5c-0.3,0.3-0.3,0.7,0,0.9l5.4,5.5
			C189.9,214.5,190.2,214.7,190.4,214.8z M190.9,213.8l0.1,0.5l-0.5-0.1c-0.1,0-0.3-0.1-0.4-0.2l-4.4-4.5l0.5-0.5l4.4,4.5
			C190.8,213.5,190.9,213.7,190.9,213.8z M185.3,207.9l0.5,0.5l-0.5,0.5l-0.5-0.5L185.3,207.9z"/>
	</g>
	<g class="st2">
		<path class="st1" d="M41.4,222.7l-4.7,1.6l-4.9,0.3c-0.1,0-0.2,0.1-0.2,0.1c-0.1,0.1-0.1,0.2-0.1,0.3l1.5,7.8
			c0,0.2,0.2,0.3,0.3,0.3l5-0.3c0,0,0,0,0,0s0,0,0,0l4.7-1.6c0.2-0.1,0.3-0.2,0.2-0.4l-1.5-7.8c0-0.1-0.1-0.2-0.2-0.2
			C41.6,222.7,41.5,222.7,41.4,222.7z M32.2,225.2l4.3-0.3l1.4,7.1l-4.3,0.3L32.2,225.2z M42.6,230.6l-4.1,1.4l-1.4-7.1l4.1-1.4
			L42.6,230.6z"/>
		<path class="st1" d="M33.4,226.6l2.7-0.2c0,0,0,0,0,0c0.2,0,0.3-0.2,0.3-0.3c0-0.2-0.2-0.3-0.4-0.3l-2.7,0.2
			c-0.2,0-0.3,0.2-0.3,0.4C33.1,226.5,33.2,226.6,33.4,226.6z"/>
		<path class="st1" d="M36.3,227.4l-2.7,0.2c-0.2,0-0.3,0.2-0.3,0.4c0,0.2,0.2,0.3,0.4,0.3l2.7-0.2c0,0,0,0,0,0
			c0.2,0,0.3-0.2,0.3-0.3C36.7,227.5,36.5,227.4,36.3,227.4z"/>
		<path class="st1" d="M36.6,229l-2.7,0.2c-0.2,0-0.3,0.2-0.3,0.4c0,0.2,0.2,0.3,0.4,0.3l2.7-0.2c0,0,0,0,0,0c0.2,0,0.3-0.2,0.3-0.3
			C37,229.1,36.8,229,36.6,229z"/>
		<path class="st1" d="M37,230.6l-2.7,0.2c-0.2,0-0.3,0.2-0.3,0.4c0,0.2,0.2,0.3,0.4,0.3l2.7-0.2c0,0,0,0,0,0c0.2,0,0.3-0.2,0.3-0.3
			C37.3,230.7,37.1,230.6,37,230.6z"/>
		<path class="st1" d="M38,226C38.1,226,38.1,226,38,226l2.6-0.8c0.2-0.1,0.3-0.2,0.2-0.4c-0.1-0.2-0.2-0.3-0.4-0.2l-2.5,0.8
			c-0.2,0.1-0.3,0.2-0.2,0.4C37.7,226,37.9,226.1,38,226z"/>
		<path class="st1" d="M38.4,227.7C38.4,227.7,38.4,227.7,38.4,227.7l2.6-0.8c0.2-0.1,0.3-0.2,0.2-0.4c-0.1-0.2-0.2-0.3-0.4-0.2
			l-2.5,0.8c-0.2,0.1-0.3,0.2-0.2,0.4C38,227.6,38.2,227.7,38.4,227.7z"/>
		<path class="st1" d="M38.7,229.3C38.7,229.3,38.7,229.3,38.7,229.3l2.6-0.8c0.2-0.1,0.3-0.2,0.2-0.4c-0.1-0.2-0.2-0.3-0.4-0.2
			l-2.5,0.8c-0.2,0.1-0.3,0.2-0.2,0.4C38.3,229.2,38.5,229.3,38.7,229.3z"/>
		<path class="st1" d="M41.3,229.4l-2.5,0.8c-0.2,0.1-0.3,0.2-0.2,0.4c0.1,0.2,0.2,0.3,0.4,0.2c0,0,0,0,0,0l2.5-0.8
			c0.2-0.1,0.3-0.2,0.2-0.4C41.7,229.5,41.5,229.4,41.3,229.4z"/>
	</g>
	<g class="st2">
		<path class="st1" d="M242.2,167.5c0.7-0.5,0.9-1.6,0.4-2.3l-2.7-3.8l2.7-3l1.9,2.6c-0.4,0-0.7,0.1-1,0.3c-0.7,0.5-0.9,1.6-0.4,2.3
			c0.5,0.7,1.6,0.9,2.3,0.4c0.7-0.5,0.9-1.6,0.4-2.3l-2.9-4c0,0,0,0,0,0l-1.5-2.1c-0.1-0.1-0.1-0.1-0.2-0.1c-0.1,0-0.2,0-0.3,0.1
			l-3.2,3.5c-0.1,0.1-0.1,0.3,0,0.4l1.5,2.2l0,0l2.1,3c-0.4,0-0.7,0.1-1,0.3c-0.7,0.5-0.9,1.6-0.4,2.3
			C240.5,167.9,241.5,168,242.2,167.5z M245,163.5c-0.4,0.3-1.1,0.2-1.4-0.2c-0.3-0.4-0.2-1.1,0.2-1.4c0.4-0.3,1.1-0.2,1.4,0.2
			S245.5,163.2,245,163.5z M241.1,156.3l1.1,1.6l-2.7,3l-1.1-1.6L241.1,156.3z M240.7,165.4c0.4-0.3,1.1-0.2,1.4,0.2
			c0.3,0.4,0.2,1.1-0.2,1.4c-0.4,0.3-1.1,0.2-1.4-0.2C240.2,166.3,240.3,165.7,240.7,165.4z"/>
	</g>
	<g class="st2">
		<path class="st1" d="M10,171.6l0.3,0.1c0.2,0,0.4-0.1,0.4-0.3l0.5-2.7l0.1-0.5l0.2-1c0-0.1,0.5-2.3,3-1.7c2.5,0.5,2.2,2.7,2.1,2.8
			l-0.2,1l-0.6,3.2c0,0.2,0.1,0.4,0.3,0.4l0.3,0.1c1.1,0.2,2.1-0.5,2.3-1.6c0.2-1.1-0.5-2.1-1.6-2.3l0.1-0.6c0,0,0.5-2.9-2.7-3.6
			c-3.2-0.6-3.8,2.2-3.8,2.3l-0.1,0.6c-1.1-0.2-2.1,0.5-2.3,1.6C8.2,170.4,8.9,171.4,10,171.6z M18.2,171.2c-0.1,0.7-0.8,1.2-1.6,1
			l0.5-2.6C17.8,169.8,18.3,170.5,18.2,171.2z M10.7,168.4l0,0.2l-0.5,2.4c-0.7-0.1-1.2-0.8-1-1.6C9.2,168.7,9.9,168.2,10.7,168.4z"
			/>
	</g>
	<g class="st2">
		<path class="st1" d="M219.3,30.1l-1.1-0.7c-0.2-0.1-0.4,0-0.5,0.1l-1.5,2.6c-0.3-0.1-0.8,0-1,0.5l-3,5.1c-0.1,0.2,0,0.4,0.1,0.5
			l2.3,1.4c0.2,0.1,0.4,0,0.5-0.1l3-5.1c0.3-0.5,0.1-0.9-0.1-1.1l1.5-2.6C219.5,30.4,219.5,30.2,219.3,30.1z M216.2,32.8
			c0.2,0.1,0.4,0,0.5-0.1l1.5-2.5l0.6,0.3l-1.5,2.5c-0.1,0.2,0,0.4,0.1,0.5c0.1,0.1,0.3,0.2,0.1,0.5l-0.7,1.1l-1.7-1l0.7-1.1
			C215.8,32.7,216,32.8,216.2,32.8z M214.7,34.7l1.7,1l-0.7,1.1l-1.7-1L214.7,34.7z M212.8,37.8l0.8-1.4l1.7,1l-0.8,1.4L212.8,37.8z
			"/>
		<path class="st1" d="M213.1,34.4c0.1,0,0.2-0.1,0.3-0.2l1.4-2.3c0.1-0.2,0-0.4-0.1-0.5l-1.7-1c-0.2-0.1-0.4,0-0.5,0.1l-1.4,2.3
			c-0.1,0.1-0.1,0.2,0,0.3l0.4,0.9l-1.3,2.1l-0.4-0.3c-0.2-0.1-0.4,0-0.5,0.1c-0.1,0.2,0,0.4,0.1,0.5l1.4,0.8c0.2,0.1,0.4,0,0.5-0.1
			s0-0.4-0.1-0.5l-0.4-0.3l1.3-2.1L213.1,34.4z M212.9,31.3l1.1,0.7l-1.1,1.8l-0.8,0l-0.3-0.7L212.9,31.3z"/>
	</g>
</g>
</svg>
