<?xml version="1.0" encoding="utf-8"?>
<!-- Generator: Adobe Illustrator 19.2.1, SVG Export Plug-In . SVG Version: 6.00 Build 0)  -->
<svg version="1.1" id="Layer_1" xmlns="http://www.w3.org/2000/svg" xmlns:xlink="http://www.w3.org/1999/xlink" x="0px" y="0px"
	 viewBox="0 0 114.5 165.8" style="enable-background:new 0 0 114.5 165.8;" xml:space="preserve">
<style type="text/css">
	.st0{fill:#00796B;fill-opacity:0.5;stroke:#00796B;stroke-width:3.0527;stroke-miterlimit:10;}
	.st1{fill:#00796B;}
	.st2{fill:none;stroke:#00796B;stroke-width:3.0527;stroke-linecap:round;stroke-miterlimit:10;}
	.st3{fill:none;stroke:#00796B;stroke-width:3;stroke-linecap:round;stroke-miterlimit:10;}
	.st4{opacity:0.3;fill:#FFFFFF;}
	.st5{opacity:0.5;fill:#00796B;}
	.st6{fill:none;stroke:#00796B;stroke-width:3.6632;stroke-linecap:round;stroke-miterlimit:10;}
	.st7{fill:none;stroke:#00796B;stroke-width:3.6632;stroke-miterlimit:10;}
	.st8{fill:none;stroke:#00796B;stroke-width:2.7474;stroke-linecap:round;stroke-miterlimit:10;}
	.st9{fill:none;stroke:#00796B;stroke-width:4;stroke-linecap:round;stroke-miterlimit:10;}
</style>
<g>
	<ellipse id="brain_floor_2_" class="st0" cx="57.4" cy="80.7" rx="45.8" ry="6.7"/>
	<ellipse id="pencil_shadow_2_" class="st1" cx="57.4" cy="80.7" rx="15.3" ry="2.2"/>
	<g id="pen_2_">
		<path class="st2" d="M64.9,58.3l-7.6,9.8l-7.6-9.8v-8.5V34.5c0,0,4.1,1.4,7.6,1.4s7.6-1.4,7.6-1.4v15.3V58.3z"/>
		<polygon class="st1" points="53.4,62.8 61.3,62.8 57.3,68.9 		"/>
		<path class="st3" d="M64.5,35.8v-4.2c0-4.2-3.3-7.6-7.5-7.6s-7.5,3.4-7.5,7.6v4.2"/>
		<line class="st3" x1="54.5" y1="35.8" x2="54.5" y2="54.8"/>
		<line class="st3" x1="60.5" y1="35.8" x2="60.5" y2="54.8"/>
	</g>
	<path id="brain_cover_2_" class="st4" d="M103,49.5c0-25.3-20.4-45.8-45.7-45.8S11.5,24.2,11.5,49.5l0.1,31.1
		c0,0,10.5,6.7,45.9,6.7s45.7-6.7,45.7-6.7L103,49.5z"/>
	<path class="st5" d="M102.9,119.5c0.1-1,0.1-2.1,0.1-3.1c0,0,0,0.1-0.1,0.2V82.8l-6.8,2.1v37.9c-6.6,4.5-18.6,9.6-38.7,9.6
		c-19.8,0-31.8-5-38.6-9.4V84.6l-7.2-1.8v33.9c-0.1-0.2-0.2-0.3-0.2-0.3c0,1.4,0.1,2.8,0.2,4.2v2.2l0.3,0.1
		c3.1,22.2,22.3,39.4,45.4,39.4c23.1,0,42.1-17.1,45.3-39.3l0.4-0.1V119.5z"/>
	<g>
		<path class="st1" d="M31.7,152.3c-0.2,0.6-0.8,0.8-1.4,0.6c-0.6-0.2-0.9-0.9-0.7-1.4c0.2-0.6,0.9-0.8,1.4-0.6
			C31.6,151.1,31.9,151.7,31.7,152.3z"/>
		<path class="st1" d="M39.2,154.4c-0.1,0.6-0.7,0.9-1.4,0.8c-0.6-0.2-1-0.8-0.8-1.3c0.2-0.6,0.8-0.9,1.4-0.7
			C39,153.3,39.4,153.9,39.2,154.4z"/>
		<path class="st1" d="M46.9,155.9c-0.1,0.6-0.7,1-1.3,0.9c-0.6-0.1-1.1-0.7-1-1.2c0.1-0.6,0.7-1,1.3-0.9
			C46.5,154.7,46.9,155.3,46.9,155.9z"/>
		<path class="st1" d="M54.6,156.5c0,0.6-0.5,1.1-1.2,1c-0.6,0-1.1-0.5-1.1-1.1c0-0.6,0.6-1,1.2-1C54.1,155.4,54.6,155.9,54.6,156.5
			z"/>
		<path class="st1" d="M62.3,156.4c0,0.6-0.4,1.1-1.1,1.1c-0.6,0-1.2-0.4-1.2-1c0-0.6,0.5-1.1,1.1-1.1
			C61.8,155.4,62.3,155.8,62.3,156.4z"/>
		<path class="st1" d="M70,155.5c0.1,0.6-0.3,1.1-1,1.2c-0.6,0.1-1.2-0.3-1.3-0.9c-0.1-0.6,0.4-1.1,1-1.2
			C69.4,154.5,69.9,154.9,70,155.5z"/>
		<path class="st1" d="M77.6,153.9c0.2,0.6-0.2,1.2-0.8,1.3c-0.6,0.2-1.2-0.2-1.4-0.8c-0.1-0.6,0.2-1.2,0.8-1.3
			C76.9,153,77.5,153.3,77.6,153.9z"/>
		<path class="st1" d="M85.1,151.5c0.2,0.6-0.1,1.2-0.7,1.4c-0.6,0.2-1.3-0.1-1.4-0.6c-0.2-0.6,0.1-1.2,0.7-1.4
			C84.2,150.7,84.9,150.9,85.1,151.5z"/>
		<path class="st1" d="M24.4,142.6c-0.2,0.5-0.9,0.8-1.5,0.5c-0.6-0.3-0.8-0.9-0.6-1.5c0.3-0.5,0.9-0.7,1.5-0.5
			C24.4,141.4,24.7,142.1,24.4,142.6z"/>
		<path class="st1" d="M31.7,145.5c-0.2,0.6-0.8,0.8-1.4,0.6c-0.6-0.2-0.9-0.9-0.7-1.4c0.2-0.6,0.9-0.8,1.4-0.6
			C31.6,144.4,31.9,145,31.7,145.5z"/>
		<path class="st1" d="M39.2,147.7c-0.1,0.6-0.7,0.9-1.4,0.8c-0.6-0.2-1-0.8-0.8-1.3c0.2-0.6,0.8-0.9,1.4-0.7
			C39,146.6,39.4,147.1,39.2,147.7z"/>
		<path class="st1" d="M46.9,149.1c-0.1,0.6-0.7,1-1.3,0.9c-0.6-0.1-1.1-0.7-1-1.2c0.1-0.6,0.7-1,1.3-0.9
			C46.5,148,46.9,148.6,46.9,149.1z"/>
		<path class="st1" d="M54.6,149.8c0,0.6-0.5,1.1-1.2,1c-0.6,0-1.1-0.5-1.1-1.1c0-0.6,0.6-1,1.2-1C54.1,148.7,54.6,149.2,54.6,149.8
			z"/>
		<path class="st1" d="M62.3,149.7c0,0.6-0.4,1.1-1.1,1.1c-0.6,0-1.2-0.4-1.2-1c0-0.6,0.5-1.1,1.1-1.1
			C61.8,148.6,62.3,149.1,62.3,149.7z"/>
		<path class="st1" d="M70,148.8c0.1,0.6-0.3,1.1-1,1.2c-0.6,0.1-1.2-0.3-1.3-0.9c-0.1-0.6,0.4-1.1,1-1.2
			C69.4,147.8,69.9,148.2,70,148.8z"/>
		<path class="st1" d="M77.6,147.2c0.2,0.6-0.2,1.2-0.8,1.3c-0.6,0.2-1.2-0.2-1.4-0.8c-0.1-0.6,0.2-1.2,0.8-1.3
			C76.9,146.3,77.5,146.6,77.6,147.2z"/>
		<path class="st1" d="M85.1,144.8c0.2,0.6-0.1,1.2-0.7,1.4c-0.6,0.2-1.3-0.1-1.4-0.6c-0.2-0.6,0.1-1.2,0.7-1.4
			C84.2,143.9,84.9,144.2,85.1,144.8z"/>
		<path class="st1" d="M92.3,141.6c0.3,0.5,0,1.2-0.6,1.5c-0.6,0.3-1.3,0.1-1.5-0.5c-0.2-0.5,0-1.2,0.6-1.5
			C91.4,140.9,92,141.1,92.3,141.6z"/>
		<path class="st1" d="M17.4,132.2c-0.3,0.5-1,0.6-1.6,0.3c-0.6-0.3-0.8-1-0.4-1.5c0.3-0.5,1-0.6,1.6-0.3
			C17.5,131,17.7,131.7,17.4,132.2z"/>
		<path class="st1" d="M24.4,135.9c-0.2,0.5-0.9,0.8-1.5,0.5c-0.6-0.3-0.8-0.9-0.6-1.5c0.3-0.5,0.9-0.7,1.5-0.5
			C24.4,134.7,24.7,135.3,24.4,135.9z"/>
		<path class="st1" d="M31.7,138.8c-0.2,0.6-0.8,0.8-1.4,0.6c-0.6-0.2-0.9-0.9-0.7-1.4c0.2-0.6,0.9-0.8,1.4-0.6
			C31.6,137.6,31.9,138.3,31.7,138.8z"/>
		<path class="st1" d="M39.2,141c-0.1,0.6-0.7,0.9-1.4,0.8c-0.6-0.2-1-0.8-0.8-1.3c0.2-0.6,0.8-0.9,1.4-0.7
			C39,139.9,39.4,140.4,39.2,141z"/>
		<path class="st1" d="M77.6,140.4c0.2,0.6-0.2,1.2-0.8,1.3c-0.6,0.2-1.2-0.2-1.4-0.8c-0.1-0.6,0.2-1.2,0.8-1.3
			C76.9,139.5,77.5,139.9,77.6,140.4z"/>
		<path class="st1" d="M85.1,138c0.2,0.6-0.1,1.2-0.7,1.4c-0.6,0.2-1.3-0.1-1.4-0.6c-0.2-0.6,0.1-1.2,0.7-1.4
			C84.2,137.2,84.9,137.5,85.1,138z"/>
		<path class="st1" d="M92.3,134.9c0.3,0.5,0,1.2-0.6,1.5c-0.6,0.3-1.3,0.1-1.5-0.5c-0.2-0.5,0-1.2,0.6-1.5
			C91.4,134.1,92,134.3,92.3,134.9z"/>
		<path class="st1" d="M99.3,130.9c0.3,0.5,0.1,1.2-0.4,1.5c-0.6,0.3-1.3,0.2-1.6-0.3c-0.3-0.5-0.1-1.2,0.4-1.5
			C98.3,130.3,98.9,130.4,99.3,130.9z"/>
		<path class="st1" d="M17.4,125.5c-0.3,0.5-1,0.6-1.6,0.3c-0.6-0.3-0.8-1-0.4-1.5c0.3-0.5,1-0.6,1.6-0.3
			C17.5,124.3,17.7,124.9,17.4,125.5z"/>
		<path class="st1" d="M24.4,129.2c-0.2,0.5-0.9,0.8-1.5,0.5c-0.6-0.3-0.8-0.9-0.6-1.5c0.3-0.5,0.9-0.7,1.5-0.5
			C24.4,128,24.7,128.6,24.4,129.2z"/>
		<path class="st1" d="M31.7,132.1c-0.2,0.6-0.8,0.8-1.4,0.6c-0.6-0.2-0.9-0.9-0.7-1.4c0.2-0.6,0.9-0.8,1.4-0.6
			C31.6,130.9,31.9,131.5,31.7,132.1z"/>
		<path class="st1" d="M39.2,134.3c-0.1,0.6-0.7,0.9-1.4,0.8c-0.6-0.2-1-0.8-0.8-1.3c0.2-0.6,0.8-0.9,1.4-0.7
			C39,133.1,39.4,133.7,39.2,134.3z"/>
		<path class="st1" d="M46.9,135.7c-0.1,0.6-0.7,1-1.3,0.9c-0.6-0.1-1.1-0.7-1-1.2c0.1-0.6,0.7-1,1.3-0.9
			C46.5,134.6,46.9,135.1,46.9,135.7z"/>
		<path class="st1" d="M54.6,136.4c0,0.6-0.5,1.1-1.2,1c-0.6,0-1.1-0.5-1.1-1.1c0-0.6,0.6-1,1.2-1C54.1,135.3,54.6,135.8,54.6,136.4
			z"/>
		<path class="st1" d="M62.3,136.2c0,0.6-0.4,1.1-1.1,1.1c-0.6,0-1.2-0.4-1.2-1c0-0.6,0.5-1.1,1.1-1.1
			C61.8,135.2,62.3,135.7,62.3,136.2z"/>
		<path class="st1" d="M70,135.4c0.1,0.6-0.3,1.1-1,1.2c-0.6,0.1-1.2-0.3-1.3-0.9c-0.1-0.6,0.4-1.1,1-1.2
			C69.4,134.4,69.9,134.8,70,135.4z"/>
		<path class="st1" d="M77.6,133.7c0.2,0.6-0.2,1.2-0.8,1.3c-0.6,0.2-1.2-0.2-1.4-0.8c-0.1-0.6,0.2-1.2,0.8-1.3
			C76.9,132.8,77.5,133.2,77.6,133.7z"/>
		<path class="st1" d="M85.1,131.3c0.2,0.6-0.1,1.2-0.7,1.4c-0.6,0.2-1.3-0.1-1.4-0.6c-0.2-0.6,0.1-1.2,0.7-1.4
			C84.2,130.5,84.9,130.8,85.1,131.3z"/>
		<path class="st1" d="M92.3,128.2c0.3,0.5,0,1.2-0.6,1.5c-0.6,0.3-1.3,0.1-1.5-0.5c-0.2-0.5,0-1.2,0.6-1.5
			C91.4,127.4,92,127.6,92.3,128.2z"/>
		<path class="st1" d="M99.3,124.2c0.3,0.5,0.1,1.2-0.4,1.5c-0.6,0.3-1.3,0.2-1.6-0.3c-0.3-0.5-0.1-1.2,0.4-1.5
			C98.3,123.6,98.9,123.7,99.3,124.2z"/>
	</g>
	<g id="brain_glare_2_">
		<path class="st6" d="M91,35.6c1.9,4.4,2.9,9.2,2.9,14.2l0,9.9l0,9.9"/>
		<path class="st6" d="M57.3,13.2c5,0,9.8,1,14.2,2.9c4.4,1.9,8.3,4.5,11.6,7.9"/>
	</g>
	<path id="brain_floor_border_2_" class="st7" d="M103.2,80.7c0,3.7-20.5,6.7-45.8,6.7s-45.8-3-45.8-6.7"/>
	<g id="ears_2_">
		<path class="st6" d="M103.1,92.6h3.5c2.3,0,4.2,1.9,4.2,4.2v11.6c0,3.1-2.5,5.6-5.6,5.6h-2.1"/>
		<path class="st6" d="M11.5,92.6H8c-2.3,0-4.2,1.9-4.2,4.2v11.6c0,3.1,2.5,5.6,5.6,5.6h2.1"/>
		<path class="st8" d="M103.2,109.7c0,0-0.1-3.8,3.8-3.8"/>
		<path class="st8" d="M11.5,109.7c0,0,0.1-3.8-3.8-3.8"/>
	</g>
	<path id="head_shape_border_2_" class="st7" d="M103.2,116.4L103,49.5c0-25.3-20.4-45.8-45.7-45.8S11.5,24.2,11.5,49.5l0.2,66.9
		c0,25.3,20.5,45.8,45.8,45.8S103.2,141.7,103.2,116.4z"/>
	<g id="eyes_1_">
		<g>
			<circle class="st1" cx="42.1" cy="108.7" r="4.6"/>
			<circle class="st1" cx="72.6" cy="109.1" r="4.6"/>
		</g>
	</g>
	<path id="lips_1_" class="st6" d="M45.8,141.7c0,0,11.8,4.6,23,0"/>
	<g id="eyebrow_2_">
		<line class="st9" x1="33" y1="98.8" x2="52" y2="98.8"/>
		<line class="st9" x1="63" y1="99.8" x2="82" y2="99.8"/>
	</g>
</g>
</svg>
