<?xml version="1.0" encoding="utf-8"?>
<!-- Generator: Adobe Illustrator 19.2.1, SVG Export Plug-In . SVG Version: 6.00 Build 0)  -->
<svg version="1.1" id="Layer_1" xmlns="http://www.w3.org/2000/svg" xmlns:xlink="http://www.w3.org/1999/xlink" x="0px" y="0px"
	 viewBox="0 0 114.5 165.8" style="enable-background:new 0 0 114.5 165.8;" xml:space="preserve">
<style type="text/css">
	.st0{fill:#59965E;fill-opacity:0.5;stroke:#59965E;stroke-width:3.0527;stroke-miterlimit:10;}
	.st1{fill:#59965E;}
	.st2{fill:none;stroke:#59965E;stroke-width:3.0527;stroke-linecap:round;stroke-miterlimit:10;}
	.st3{fill:none;stroke:#59965E;stroke-width:3;stroke-linecap:round;stroke-miterlimit:10;}
	.st4{opacity:0.3;fill:#FFFFFF;}
	.st5{opacity:0.5;fill:#59965E;}
	.st6{fill:none;stroke:#59965E;stroke-width:3.6632;stroke-linecap:round;stroke-miterlimit:10;}
	.st7{fill:none;stroke:#59965E;stroke-width:3.6632;stroke-miterlimit:10;}
	.st8{fill:none;stroke:#59965E;stroke-width:2.7474;stroke-linecap:round;stroke-miterlimit:10;}
	.st9{fill:none;stroke:#59965E;stroke-width:4;stroke-linecap:round;stroke-miterlimit:10;}
</style>
<g>
	<ellipse id="brain_floor_1_" class="st0" cx="57.4" cy="80.5" rx="45.8" ry="6.7"/>
	<ellipse id="pencil_shadow_1_" class="st1" cx="57.4" cy="80.5" rx="15.3" ry="2.2"/>
	<g id="pen_1_">
		<path class="st2" d="M64.9,58.3l-7.6,9.8l-7.6-9.8v-8.5V34.5c0,0,4.1,1.4,7.6,1.4s7.6-1.4,7.6-1.4v15.3V58.3z"/>
		<polygon class="st1" points="53.4,63 61.2,63 57.3,69.1 		"/>
		<path class="st3" d="M64.7,36v-4.6c0-4.2-3.3-7.6-7.5-7.6s-7.5,3.4-7.5,7.6V36"/>
		<line class="st3" x1="54" y1="36" x2="54" y2="55"/>
		<line class="st3" x1="60" y1="36" x2="60" y2="55"/>
	</g>
	<path id="brain_cover_1_" class="st4" d="M103,49.4c0-25.3-20.4-45.8-45.7-45.8S11.4,24.1,11.4,49.4l0.1,31.1
		c0,0,10.5,6.7,45.9,6.7s45.7-6.7,45.7-6.7L103,49.4z"/>
	<path class="st5" d="M102.9,119.4c0.1-1,0.1-2.1,0.1-3.1c0,0,0,0.1-0.1,0.2V82.7L96,84.9v37.9c-6.6,4.5-18.6,9.6-38.7,9.6
		c-19.8,0-31.8-5-38.6-9.4V84.6l-7.2-1.8v33.9c-0.1-0.2-0.2-0.3-0.2-0.3c0,1.4,0.1,2.8,0.2,4.2v2.2l0.3,0.1
		c3.1,22.2,22.3,39.4,45.4,39.4c23.1,0,42.1-17.1,45.3-39.3l0.4-0.1V119.4z"/>
	<g>
		<path class="st1" d="M31.7,152.1c-0.2,0.6-0.8,0.8-1.4,0.6c-0.6-0.2-0.9-0.9-0.7-1.4c0.2-0.6,0.9-0.8,1.4-0.6
			C31.6,150.9,31.9,151.5,31.7,152.1z"/>
		<path class="st1" d="M39.2,154.3c-0.1,0.6-0.7,0.9-1.4,0.8c-0.6-0.2-1-0.8-0.8-1.3c0.2-0.6,0.8-0.9,1.4-0.7
			C39,153.1,39.3,153.7,39.2,154.3z"/>
		<path class="st1" d="M46.9,155.7c-0.1,0.6-0.7,1-1.3,0.9c-0.6-0.1-1.1-0.7-1-1.2c0.1-0.6,0.7-1,1.3-0.9
			C46.5,154.6,46.9,155.1,46.9,155.7z"/>
		<path class="st1" d="M54.6,156.3c0,0.6-0.5,1.1-1.2,1c-0.6,0-1.1-0.5-1.1-1.1c0-0.6,0.6-1,1.2-1C54.1,155.3,54.6,155.7,54.6,156.3
			z"/>
		<path class="st1" d="M62.3,156.2c0,0.6-0.4,1.1-1.1,1.1c-0.6,0-1.2-0.4-1.2-1c0-0.6,0.5-1.1,1.1-1.1
			C61.7,155.2,62.3,155.6,62.3,156.2z"/>
		<path class="st1" d="M70,155.4c0.1,0.6-0.3,1.1-1,1.2c-0.6,0.1-1.2-0.3-1.3-0.9c-0.1-0.6,0.4-1.1,1-1.2
			C69.3,154.4,69.9,154.8,70,155.4z"/>
		<path class="st1" d="M77.6,153.7c0.2,0.6-0.2,1.2-0.8,1.3c-0.6,0.2-1.2-0.2-1.4-0.8c-0.1-0.6,0.2-1.2,0.8-1.3
			C76.8,152.8,77.5,153.1,77.6,153.7z"/>
		<path class="st1" d="M85.1,151.3c0.2,0.6-0.1,1.2-0.7,1.4c-0.6,0.2-1.3-0.1-1.4-0.6c-0.2-0.6,0.1-1.2,0.7-1.4
			C84.2,150.5,84.8,150.8,85.1,151.3z"/>
		<path class="st1" d="M24.4,142.4c-0.2,0.5-0.9,0.8-1.5,0.5c-0.6-0.3-0.8-0.9-0.6-1.5c0.3-0.5,0.9-0.7,1.5-0.5
			C24.4,141.2,24.7,141.9,24.4,142.4z"/>
		<path class="st1" d="M31.7,145.4c-0.2,0.6-0.8,0.8-1.4,0.6c-0.6-0.2-0.9-0.9-0.7-1.4c0.2-0.6,0.9-0.8,1.4-0.6
			C31.6,144.2,31.9,144.8,31.7,145.4z"/>
		<path class="st1" d="M39.2,147.6c-0.1,0.6-0.7,0.9-1.4,0.8c-0.6-0.2-1-0.8-0.8-1.3c0.2-0.6,0.8-0.9,1.4-0.7
			C39,146.4,39.3,147,39.2,147.6z"/>
		<path class="st1" d="M46.9,149c-0.1,0.6-0.7,1-1.3,0.9c-0.6-0.1-1.1-0.7-1-1.2c0.1-0.6,0.7-1,1.3-0.9
			C46.5,147.8,46.9,148.4,46.9,149z"/>
		<path class="st1" d="M54.6,149.6c0,0.6-0.5,1.1-1.2,1c-0.6,0-1.1-0.5-1.1-1.1c0-0.6,0.6-1,1.2-1C54.1,148.5,54.6,149,54.6,149.6z"
			/>
		<path class="st1" d="M62.3,149.5c0,0.6-0.4,1.1-1.1,1.1c-0.6,0-1.2-0.4-1.2-1c0-0.6,0.5-1.1,1.1-1.1
			C61.7,148.5,62.3,148.9,62.3,149.5z"/>
		<path class="st1" d="M70,148.6c0.1,0.6-0.3,1.1-1,1.2c-0.6,0.1-1.2-0.3-1.3-0.9c-0.1-0.6,0.4-1.1,1-1.2
			C69.3,147.7,69.9,148.1,70,148.6z"/>
		<path class="st1" d="M77.6,147c0.2,0.6-0.2,1.2-0.8,1.3c-0.6,0.2-1.2-0.2-1.4-0.8c-0.1-0.6,0.2-1.2,0.8-1.3
			C76.8,146.1,77.5,146.4,77.6,147z"/>
		<path class="st1" d="M85.1,144.6c0.2,0.6-0.1,1.2-0.7,1.4c-0.6,0.2-1.3-0.1-1.4-0.6c-0.2-0.6,0.1-1.2,0.7-1.4
			C84.2,143.8,84.8,144,85.1,144.6z"/>
		<path class="st1" d="M92.3,141.4c0.3,0.5,0,1.2-0.6,1.5c-0.6,0.3-1.3,0.1-1.5-0.5c-0.2-0.5,0-1.2,0.6-1.5
			C91.4,140.7,92,140.9,92.3,141.4z"/>
		<path class="st1" d="M17.4,132c-0.3,0.5-1,0.6-1.6,0.3c-0.6-0.3-0.8-1-0.4-1.5c0.3-0.5,1-0.6,1.6-0.3
			C17.5,130.8,17.7,131.5,17.4,132z"/>
		<path class="st1" d="M24.4,135.7c-0.2,0.5-0.9,0.8-1.5,0.5c-0.6-0.3-0.8-0.9-0.6-1.5c0.3-0.5,0.9-0.7,1.5-0.5
			C24.4,134.5,24.7,135.2,24.4,135.7z"/>
		<path class="st1" d="M31.7,138.7c-0.2,0.6-0.8,0.8-1.4,0.6c-0.6-0.2-0.9-0.9-0.7-1.4c0.2-0.6,0.9-0.8,1.4-0.6
			C31.6,137.5,31.9,138.1,31.7,138.7z"/>
		<path class="st1" d="M39.2,140.8c-0.1,0.6-0.7,0.9-1.4,0.8c-0.6-0.2-1-0.8-0.8-1.3c0.2-0.6,0.8-0.9,1.4-0.7
			C39,139.7,39.3,140.3,39.2,140.8z"/>
		<path class="st1" d="M77.6,140.3c0.2,0.6-0.2,1.2-0.8,1.3c-0.6,0.2-1.2-0.2-1.4-0.8c-0.1-0.6,0.2-1.2,0.8-1.3
			C76.8,139.4,77.5,139.7,77.6,140.3z"/>
		<path class="st1" d="M85.1,137.9c0.2,0.6-0.1,1.2-0.7,1.4c-0.6,0.2-1.3-0.1-1.4-0.6c-0.2-0.6,0.1-1.2,0.7-1.4
			C84.2,137.1,84.8,137.3,85.1,137.9z"/>
		<path class="st1" d="M92.3,134.7c0.3,0.5,0,1.2-0.6,1.5c-0.6,0.3-1.3,0.1-1.5-0.5c-0.2-0.5,0-1.2,0.6-1.5
			C91.4,134,92,134.2,92.3,134.7z"/>
		<path class="st1" d="M99.2,130.8c0.3,0.5,0.1,1.2-0.4,1.5c-0.6,0.3-1.3,0.2-1.6-0.3c-0.3-0.5-0.1-1.2,0.4-1.5
			C98.2,130.1,98.9,130.3,99.2,130.8z"/>
		<path class="st1" d="M17.4,125.3c-0.3,0.5-1,0.6-1.6,0.3c-0.6-0.3-0.8-1-0.4-1.5c0.3-0.5,1-0.6,1.6-0.3
			C17.5,124.1,17.7,124.8,17.4,125.3z"/>
		<path class="st1" d="M24.4,129c-0.2,0.5-0.9,0.8-1.5,0.5c-0.6-0.3-0.8-0.9-0.6-1.5c0.3-0.5,0.9-0.7,1.5-0.5
			C24.4,127.8,24.7,128.5,24.4,129z"/>
		<path class="st1" d="M31.7,131.9c-0.2,0.6-0.8,0.8-1.4,0.6c-0.6-0.2-0.9-0.9-0.7-1.4c0.2-0.6,0.9-0.8,1.4-0.6
			C31.6,130.8,31.9,131.4,31.7,131.9z"/>
		<path class="st1" d="M39.2,134.1c-0.1,0.6-0.7,0.9-1.4,0.8c-0.6-0.2-1-0.8-0.8-1.3c0.2-0.6,0.8-0.9,1.4-0.7
			C39,133,39.3,133.5,39.2,134.1z"/>
		<path class="st1" d="M46.9,135.5c-0.1,0.6-0.7,1-1.3,0.9c-0.6-0.1-1.1-0.7-1-1.2c0.1-0.6,0.7-1,1.3-0.9
			C46.5,134.4,46.9,135,46.9,135.5z"/>
		<path class="st1" d="M54.6,136.2c0,0.6-0.5,1.1-1.2,1c-0.6,0-1.1-0.5-1.1-1.1c0-0.6,0.6-1,1.2-1C54.1,135.1,54.6,135.6,54.6,136.2
			z"/>
		<path class="st1" d="M62.3,136.1c0,0.6-0.4,1.1-1.1,1.1c-0.6,0-1.2-0.4-1.2-1c0-0.6,0.5-1.1,1.1-1.1
			C61.7,135,62.3,135.5,62.3,136.1z"/>
		<path class="st1" d="M70,135.2c0.1,0.6-0.3,1.1-1,1.2c-0.6,0.1-1.2-0.3-1.3-0.9c-0.1-0.6,0.4-1.1,1-1.2
			C69.3,134.2,69.9,134.6,70,135.2z"/>
		<path class="st1" d="M77.6,133.6c0.2,0.6-0.2,1.2-0.8,1.3c-0.6,0.2-1.2-0.2-1.4-0.8c-0.1-0.6,0.2-1.2,0.8-1.3
			C76.8,132.7,77.5,133,77.6,133.6z"/>
		<path class="st1" d="M85.1,131.2c0.2,0.6-0.1,1.2-0.7,1.4c-0.6,0.2-1.3-0.1-1.4-0.6c-0.2-0.6,0.1-1.2,0.7-1.4
			C84.2,130.3,84.8,130.6,85.1,131.2z"/>
		<path class="st1" d="M92.3,128c0.3,0.5,0,1.2-0.6,1.5c-0.6,0.3-1.3,0.1-1.5-0.5c-0.2-0.5,0-1.2,0.6-1.5
			C91.4,127.3,92,127.5,92.3,128z"/>
		<path class="st1" d="M99.2,124.1c0.3,0.5,0.1,1.2-0.4,1.5c-0.6,0.3-1.3,0.2-1.6-0.3c-0.3-0.5-0.1-1.2,0.4-1.5
			C98.2,123.4,98.9,123.6,99.2,124.1z"/>
	</g>
	<g id="brain_glare_1_">
		<path class="st6" d="M91,35.4c1.9,4.4,2.9,9.2,2.9,14.2l0,9.9l0,9.9"/>
		<path class="st6" d="M57.3,13c5,0,9.8,1,14.2,2.9c4.4,1.9,8.3,4.5,11.6,7.9"/>
	</g>
	<path id="brain_floor_border_1_" class="st7" d="M103.2,80.5c0,3.7-20.5,6.7-45.8,6.7s-45.8-3-45.8-6.7"/>
	<g id="ears_1_">
		<path class="st6" d="M103.1,92.5h3.5c2.3,0,4.2,1.9,4.2,4.2v11.6c0,3.1-2.5,5.6-5.6,5.6h-2.1"/>
		<path class="st6" d="M11.4,92.5H8c-2.3,0-4.2,1.9-4.2,4.2v11.6c0,3.1,2.5,5.6,5.6,5.6h2.1"/>
		<path class="st8" d="M103.2,109.5c0,0-0.1-3.8,3.8-3.8"/>
		<path class="st8" d="M11.4,109.5c0,0,0.1-3.8-3.8-3.8"/>
	</g>
	<path id="head_shape_border_1_" class="st7" d="M103.2,116.2L103,49.4c0-25.3-20.4-45.8-45.7-45.8S11.4,24.1,11.4,49.4l0.2,66.9
		c0,25.3,20.5,45.8,45.8,45.8S103.2,141.5,103.2,116.2z"/>
	<g id="eyes_3_">
		<g>
			<circle class="st1" cx="42" cy="108.6" r="4.6"/>
			<circle class="st1" cx="72.6" cy="108.9" r="4.6"/>
		</g>
	</g>
	<path id="lips_2_" class="st6" d="M45.7,141.5c0,0,11.8,4.6,23,0"/>
	<g id="eyebrow_1_">
		<line class="st9" x1="32.5" y1="99" x2="51.5" y2="99"/>
		<line class="st9" x1="62.5" y1="100" x2="81.5" y2="100"/>
	</g>
</g>
</svg>
